<?xml version="1.0" encoding="UTF-8" standalone="no"?>
<!DOCTYPE svg PUBLIC "-//W3C//DTD SVG 1.1//EN" "http://www.w3.org/Graphics/SVG/1.1/DTD/svg11.dtd">
<svg width="100%" height="100%" viewBox="0 0 1080 1080" version="1.1" xmlns="http://www.w3.org/2000/svg" xmlns:xlink="http://www.w3.org/1999/xlink" xml:space="preserve" xmlns:serif="http://www.serif.com/" style="fill-rule:evenodd;clip-rule:evenodd;stroke-linejoin:round;stroke-miterlimit:2;">
    <g>
        <g transform="matrix(-0.545744,0,0,0.545744,1413.98,-106.824)">
            <path d="M1831.09,954.419L1814.91,958.159C1787.34,964.536 1763.45,981.64 1748.53,1005.68C1741.4,1017.17 1736.6,1029.78 1734.24,1042.83C1708.97,1045.68 1685.27,1057.54 1667.75,1076.66C1645.06,1101.42 1635.4,1135.45 1641.7,1168.44C1644.5,1183.07 1649.11,1200.02 1652.3,1218.25C1654.01,1228.05 1657.15,1238.93 1652.8,1249.51C1635.43,1291.76 1652.15,1270.6 1601.51,1360.15C1550.83,1270.6 1567.45,1291.76 1550.09,1249.51C1545.74,1238.93 1548.88,1228.05 1550.59,1218.25C1553.77,1200.02 1558.39,1183.07 1561.18,1168.44C1567.48,1135.45 1557.82,1101.42 1535.13,1076.66C1517.61,1057.54 1493.92,1045.68 1468.65,1042.83C1466.29,1029.78 1461.49,1017.17 1454.36,1005.68C1439.43,981.64 1415.54,964.536 1387.97,958.159L1371.8,954.419L1372.77,918.275L1351.42,861.883C1318.35,798.667 1226.38,662.921 1196.6,628.083C1170.2,597.194 1110.47,554.137 1085.08,536.427L1040.55,488.902C1005.64,451.648 949.187,444.457 906.055,471.771C862.924,499.085 845.289,553.196 864.043,600.679L901.866,696.441C905.414,705.424 910.17,713.883 916.002,721.583C916.002,721.583 971.64,793.135 986.338,825.598C996.959,849.058 1031.74,949.399 1037.11,964.94C1037.25,979.478 1036.84,998.198 1035.54,1019.25C1029.92,1025.5 1024.14,1032.1 1021.62,1035.51L1001.63,1077.82L999.828,1119.32L1013.3,1157.57L1034.93,1183.94L1059.31,1200.2L1083.91,1208.71L1108.68,1211.23C1115.38,1211.17 1122.61,1211.38 1130.06,1211.77L1122.37,1299.49C1118.98,1338.24 1137.01,1375.75 1169.38,1397.3C1190.16,1411.13 1214.73,1416.98 1238.77,1414.61C1244.1,1430.08 1249.72,1445.22 1255.25,1459.83C1283.65,1534.73 1335.8,1580.21 1509.77,1877.23C1528.85,1909.8 1563.78,1929.82 1601.53,1929.82C1639.29,1929.82 1674.21,1909.8 1693.29,1877.23C1867.27,1580.21 1919.23,1534.73 1947.63,1459.83C1953.17,1445.22 1958.78,1430.08 1964.12,1414.61C1988.15,1416.98 2012.72,1411.13 2033.5,1397.3C2065.88,1375.75 2083.91,1338.24 2080.51,1299.49L2072.82,1211.77C2080.28,1211.38 2087.5,1211.17 2094.21,1211.23L2118.97,1208.71L2143.57,1200.2L2167.95,1183.94L2189.59,1157.57L2203.05,1119.32L2201.26,1077.82L2181.26,1035.51C2178.75,1032.1 2172.97,1025.5 2167.34,1019.25C2166.04,998.198 2165.63,979.478 2165.78,964.94C2171.15,949.399 2205.93,849.058 2216.55,825.598C2231.24,793.135 2286.88,721.583 2286.88,721.583C2292.71,713.883 2297.47,705.424 2301.02,696.441L2338.84,600.679C2357.6,553.196 2339.96,499.085 2296.83,471.771C2253.7,444.457 2197.24,451.648 2162.33,488.902L2117.81,536.423C2092.41,554.139 2032.68,597.195 2006.28,628.083C1976.51,662.921 1884.53,798.667 1851.46,861.883L1830.12,918.275L1831.09,954.419Z"/>
            <path d="M1831.09,954.419L1814.91,958.159C1787.34,964.536 1763.45,981.64 1748.53,1005.68C1741.4,1017.17 1736.6,1029.78 1734.24,1042.83C1708.97,1045.68 1685.27,1057.54 1667.75,1076.66C1645.06,1101.42 1635.4,1135.45 1641.7,1168.44C1644.5,1183.07 1649.11,1200.02 1652.3,1218.25C1654.01,1228.05 1657.15,1238.93 1652.8,1249.51C1635.43,1291.76 1652.15,1270.6 1601.51,1360.15C1550.83,1270.6 1567.45,1291.76 1550.09,1249.51C1545.74,1238.93 1548.88,1228.05 1550.59,1218.25C1553.77,1200.02 1558.39,1183.07 1561.18,1168.44C1567.48,1135.45 1557.82,1101.42 1535.13,1076.66C1517.61,1057.54 1493.92,1045.68 1468.65,1042.83C1466.29,1029.78 1461.49,1017.17 1454.36,1005.68C1439.43,981.64 1415.54,964.536 1387.97,958.159L1371.8,954.419L1372.77,918.275L1351.42,861.883C1318.35,798.667 1226.38,662.921 1196.6,628.083C1170.2,597.194 1110.47,554.137 1085.08,536.427L1040.55,488.902C1005.64,451.648 949.187,444.457 906.055,471.771C862.924,499.085 845.289,553.196 864.043,600.679L901.866,696.441C905.414,705.424 910.17,713.883 916.002,721.583C916.002,721.583 971.64,793.135 986.338,825.598C996.959,849.058 1031.74,949.399 1037.11,964.94C1037.25,979.478 1036.84,998.198 1035.54,1019.25C1029.92,1025.5 1024.14,1032.1 1021.62,1035.51L1001.63,1077.82L999.828,1119.32L1013.3,1157.57L1034.93,1183.94L1059.31,1200.2L1083.91,1208.71L1108.68,1211.23C1115.38,1211.17 1122.61,1211.38 1130.06,1211.77L1122.37,1299.49C1118.98,1338.24 1137.01,1375.75 1169.38,1397.3C1190.16,1411.13 1214.73,1416.98 1238.77,1414.61C1244.1,1430.08 1249.72,1445.22 1255.25,1459.83C1283.65,1534.73 1335.8,1580.21 1509.77,1877.23C1528.85,1909.8 1563.78,1929.82 1601.53,1929.82C1639.29,1929.82 1674.21,1909.8 1693.29,1877.23C1867.27,1580.21 1919.23,1534.73 1947.63,1459.83C1953.17,1445.22 1958.78,1430.08 1964.12,1414.61C1988.15,1416.98 2012.72,1411.13 2033.5,1397.3C2065.88,1375.75 2083.91,1338.24 2080.51,1299.49L2072.82,1211.77C2080.28,1211.38 2087.5,1211.17 2094.21,1211.23L2118.97,1208.71L2143.57,1200.2L2167.95,1183.94L2189.59,1157.57L2203.05,1119.32L2201.26,1077.82L2181.26,1035.51C2178.75,1032.1 2172.97,1025.5 2167.34,1019.25C2166.04,998.198 2165.63,979.478 2165.78,964.94C2171.15,949.399 2205.93,849.058 2216.55,825.598C2231.24,793.135 2286.88,721.583 2286.88,721.583C2292.71,713.883 2297.47,705.424 2301.02,696.441L2338.84,600.679C2357.6,553.196 2339.96,499.085 2296.83,471.771C2253.7,444.457 2197.24,451.648 2162.33,488.902L2117.81,536.423C2092.41,554.139 2032.68,597.195 2006.28,628.083C1976.51,662.921 1884.53,798.667 1851.46,861.883L1830.12,918.275L1831.09,954.419ZM1841.65,954.136L1840.74,920.07L1861.12,866.209C1894.17,803.285 1984.88,669.387 2014.32,634.948C2040.23,604.633 2098.93,562.476 2123.85,545.089L2125.52,543.648L2170.04,496.127C2201.48,462.574 2252.33,456.098 2291.18,480.698C2330.02,505.298 2345.9,554.032 2329.01,596.797L2291.19,692.559C2288,700.636 2283.73,708.241 2278.52,715.121C2277.35,716.64 2221.75,788.486 2206.92,821.24C2196.23,844.854 2161.2,945.846 2155.79,961.488L2155.21,964.834C2155.07,979.576 2155.48,998.557 2156.8,1019.9L2159.49,1026.32C2164.44,1031.83 2169.54,1037.6 2172.17,1041.01L2190.79,1080.41L2192.41,1117.73L2180.24,1152.3L2160.78,1176.02L2138.84,1190.66L2116.68,1198.32L2093.72,1200.66C2086.98,1200.61 2079.73,1200.82 2072.26,1201.22L2062.3,1212.69L2069.99,1300.41C2073.04,1335.31 2056.81,1369.09 2027.65,1388.51C2008.93,1400.96 1986.8,1406.23 1965.15,1404.09L1954.13,1411.16C1948.83,1426.53 1943.25,1441.58 1937.75,1456.09C1909.45,1530.72 1857.52,1575.94 1684.17,1871.88C1666.99,1901.23 1635.53,1919.25 1601.53,1919.25C1567.53,1919.25 1536.07,1901.23 1518.89,1871.88C1345.54,1575.94 1293.43,1530.72 1265.13,1456.09C1259.63,1441.58 1254.06,1426.53 1248.76,1411.16L1237.73,1404.09C1216.08,1406.23 1193.95,1400.96 1175.24,1388.51C1146.08,1369.09 1129.84,1335.31 1132.9,1300.41L1140.59,1212.69L1130.62,1201.22C1123.15,1200.82 1115.91,1200.61 1109.17,1200.66L1086.21,1198.32L1064.04,1190.66L1042.11,1176.02L1022.65,1152.3L1010.47,1117.73L1012.09,1080.41L1030.72,1041C1033.34,1037.6 1038.44,1031.82 1043.39,1026.32L1046.09,1019.9C1047.41,998.557 1047.82,979.576 1047.67,964.834L1047.09,961.488C1041.69,945.846 1006.65,844.854 995.963,821.24C981.242,788.725 926.347,717.686 924.354,715.11C919.134,708.2 914.874,700.614 911.693,692.559L873.87,596.797C856.98,554.032 872.863,505.298 911.708,480.698C950.554,456.098 1001.4,462.574 1032.84,496.127L1077.37,543.651L1079.04,545.093C1103.95,562.475 1162.66,604.632 1188.57,634.948C1218.01,669.389 1308.73,803.301 1341.77,866.222L1362.15,920.07L1361.24,954.136L1369.42,964.713L1385.59,968.454C1410.42,974.197 1431.94,989.601 1445.38,1011.25C1451.8,1021.6 1456.12,1032.96 1458.25,1044.71L1467.46,1053.33C1490.22,1055.9 1511.56,1066.58 1527.34,1083.8C1547.78,1106.1 1556.47,1136.75 1550.8,1166.46C1548,1181.13 1543.37,1198.14 1540.18,1216.43C1538.15,1228.06 1535.15,1240.98 1540.31,1253.53C1557.87,1296.23 1541.08,1274.83 1592.32,1365.36L1610.71,1365.35C1661.89,1274.83 1645.01,1296.23 1662.57,1253.53C1667.73,1240.98 1664.73,1228.06 1662.7,1216.43C1659.51,1198.14 1654.88,1181.13 1652.08,1166.46C1646.41,1136.75 1655.11,1106.1 1675.54,1083.8C1691.32,1066.58 1712.66,1055.9 1735.42,1053.33L1744.63,1044.71C1746.76,1032.96 1751.08,1021.6 1757.5,1011.25C1770.95,989.601 1792.46,974.197 1817.3,968.454L1833.47,964.713L1841.65,954.136Z" style="fill:rgb(0,13,193);fill-opacity:0;"/>
        </g>
        <g transform="matrix(-0.545744,0,0,0.545744,1413.98,-106.824)">
            <path d="M1831.09,954.419L1814.91,958.159C1787.34,964.536 1763.45,981.64 1748.53,1005.68C1741.4,1017.17 1736.6,1029.78 1734.24,1042.83C1708.97,1045.68 1685.27,1057.54 1667.75,1076.66C1645.06,1101.42 1635.4,1135.45 1641.7,1168.44C1644.5,1183.07 1649.11,1200.02 1652.3,1218.25C1654.01,1228.05 1657.15,1238.93 1652.8,1249.51C1635.43,1291.76 1652.15,1270.6 1601.51,1360.15C1550.83,1270.6 1567.45,1291.76 1550.09,1249.51C1545.74,1238.93 1548.88,1228.05 1550.59,1218.25C1553.77,1200.02 1558.39,1183.07 1561.18,1168.44C1567.48,1135.45 1557.82,1101.42 1535.13,1076.66C1517.61,1057.54 1493.92,1045.68 1468.65,1042.83C1466.29,1029.78 1461.49,1017.17 1454.36,1005.68C1439.43,981.64 1415.54,964.536 1387.97,958.159L1371.8,954.419L1372.77,918.275L1351.42,861.883C1318.35,798.667 1226.38,662.921 1196.6,628.083C1170.2,597.194 1110.47,554.137 1085.08,536.427L1040.55,488.902C1005.64,451.648 949.187,444.457 906.055,471.771C862.924,499.085 845.289,553.196 864.043,600.679L901.866,696.441C905.414,705.424 910.17,713.883 916.002,721.583C916.002,721.583 971.64,793.135 986.338,825.598C996.959,849.058 1031.74,949.399 1037.11,964.94C1037.25,979.478 1036.84,998.198 1035.54,1019.25C1029.92,1025.5 1024.14,1032.1 1021.62,1035.51L1001.63,1077.82L999.828,1119.32L1013.3,1157.57L1034.93,1183.94L1059.31,1200.2L1083.91,1208.71L1108.68,1211.23C1115.38,1211.17 1122.61,1211.38 1130.06,1211.77L1122.37,1299.49C1118.98,1338.24 1137.01,1375.75 1169.38,1397.3C1190.16,1411.13 1214.73,1416.98 1238.77,1414.61C1244.1,1430.08 1249.72,1445.22 1255.25,1459.83C1283.65,1534.73 1335.8,1580.21 1509.77,1877.23C1528.85,1909.8 1563.78,1929.82 1601.53,1929.82C1639.29,1929.82 1674.21,1909.8 1693.29,1877.23C1867.27,1580.21 1919.23,1534.73 1947.63,1459.83C1953.17,1445.22 1958.78,1430.08 1964.12,1414.61C1988.15,1416.98 2012.72,1411.13 2033.5,1397.3C2065.88,1375.75 2083.91,1338.24 2080.51,1299.49L2072.82,1211.77C2080.28,1211.38 2087.5,1211.17 2094.21,1211.23L2118.97,1208.71L2143.57,1200.2L2167.95,1183.94L2189.59,1157.57L2203.05,1119.32L2201.26,1077.82L2181.26,1035.51C2178.75,1032.1 2172.97,1025.5 2167.34,1019.25C2166.04,998.198 2165.63,979.478 2165.78,964.94C2171.15,949.399 2205.93,849.058 2216.55,825.598C2231.24,793.135 2286.88,721.583 2286.88,721.583C2292.71,713.883 2297.47,705.424 2301.02,696.441L2338.84,600.679C2357.6,553.196 2339.96,499.085 2296.83,471.771C2253.7,444.457 2197.24,451.648 2162.33,488.902L2117.81,536.423C2092.41,554.139 2032.68,597.195 2006.28,628.083C1976.51,662.921 1884.53,798.667 1851.46,861.883L1830.12,918.275L1831.09,954.419Z" style="fill:url(#_Radial1);"/>
            <path d="M1831.09,954.419L1814.91,958.159C1787.34,964.536 1763.45,981.64 1748.53,1005.68C1741.4,1017.17 1736.6,1029.78 1734.24,1042.83C1708.97,1045.68 1685.27,1057.54 1667.75,1076.66C1645.06,1101.42 1635.4,1135.45 1641.7,1168.44C1644.5,1183.07 1649.11,1200.02 1652.3,1218.25C1654.01,1228.05 1657.15,1238.93 1652.8,1249.51C1635.43,1291.76 1652.15,1270.6 1601.51,1360.15C1550.83,1270.6 1567.45,1291.76 1550.09,1249.51C1545.74,1238.93 1548.88,1228.05 1550.59,1218.25C1553.77,1200.02 1558.39,1183.07 1561.18,1168.44C1567.48,1135.45 1557.82,1101.42 1535.13,1076.66C1517.61,1057.54 1493.92,1045.68 1468.65,1042.83C1466.29,1029.78 1461.49,1017.17 1454.36,1005.68C1439.43,981.64 1415.54,964.536 1387.97,958.159L1371.8,954.419L1372.77,918.275L1351.42,861.883C1318.35,798.667 1226.38,662.921 1196.6,628.083C1170.2,597.194 1110.47,554.137 1085.08,536.427L1040.55,488.902C1005.64,451.648 949.187,444.457 906.055,471.771C862.924,499.085 845.289,553.196 864.043,600.679L901.866,696.441C905.414,705.424 910.17,713.883 916.002,721.583C916.002,721.583 971.64,793.135 986.338,825.598C996.959,849.058 1031.74,949.399 1037.11,964.94C1037.25,979.478 1036.84,998.198 1035.54,1019.25C1029.92,1025.5 1024.14,1032.1 1021.62,1035.51L1001.63,1077.82L999.828,1119.32L1013.3,1157.57L1034.93,1183.94L1059.31,1200.2L1083.91,1208.71L1108.68,1211.23C1115.38,1211.17 1122.61,1211.38 1130.06,1211.77L1122.37,1299.49C1118.98,1338.24 1137.01,1375.75 1169.38,1397.3C1190.16,1411.13 1214.73,1416.98 1238.77,1414.61C1244.1,1430.08 1249.72,1445.22 1255.25,1459.83C1283.65,1534.73 1335.8,1580.21 1509.77,1877.23C1528.85,1909.8 1563.78,1929.82 1601.53,1929.82C1639.29,1929.82 1674.21,1909.8 1693.29,1877.23C1867.27,1580.21 1919.23,1534.73 1947.63,1459.83C1953.17,1445.22 1958.78,1430.08 1964.12,1414.61C1988.15,1416.98 2012.72,1411.13 2033.5,1397.3C2065.88,1375.75 2083.91,1338.24 2080.51,1299.49L2072.82,1211.77C2080.28,1211.38 2087.5,1211.17 2094.21,1211.23L2118.97,1208.71L2143.57,1200.2L2167.95,1183.94L2189.59,1157.57L2203.05,1119.32L2201.26,1077.82L2181.26,1035.51C2178.75,1032.1 2172.97,1025.5 2167.34,1019.25C2166.04,998.198 2165.63,979.478 2165.78,964.94C2171.15,949.399 2205.93,849.058 2216.55,825.598C2231.24,793.135 2286.88,721.583 2286.88,721.583C2292.71,713.883 2297.47,705.424 2301.02,696.441L2338.84,600.679C2357.6,553.196 2339.96,499.085 2296.83,471.771C2253.7,444.457 2197.24,451.648 2162.33,488.902L2117.81,536.423C2092.41,554.139 2032.68,597.195 2006.28,628.083C1976.51,662.921 1884.53,798.667 1851.46,861.883L1830.12,918.275L1831.09,954.419ZM1841.65,954.136L1840.74,920.07L1861.12,866.209C1894.17,803.285 1984.88,669.387 2014.32,634.948C2040.23,604.633 2098.93,562.476 2123.85,545.089L2125.52,543.648L2170.04,496.127C2201.48,462.574 2252.33,456.098 2291.18,480.698C2330.02,505.298 2345.9,554.032 2329.01,596.797L2291.19,692.559C2288,700.636 2283.73,708.241 2278.52,715.121C2277.35,716.64 2221.75,788.486 2206.92,821.24C2196.23,844.854 2161.2,945.846 2155.79,961.488L2155.21,964.834C2155.07,979.576 2155.48,998.557 2156.8,1019.9L2159.49,1026.32C2164.44,1031.83 2169.54,1037.6 2172.17,1041.01L2190.79,1080.41L2192.41,1117.73L2180.24,1152.3L2160.78,1176.02L2138.84,1190.66L2116.68,1198.32L2093.72,1200.66C2086.98,1200.61 2079.73,1200.82 2072.26,1201.22L2062.3,1212.69L2069.99,1300.41C2073.04,1335.31 2056.81,1369.09 2027.65,1388.51C2008.93,1400.96 1986.8,1406.23 1965.15,1404.09L1954.13,1411.16C1948.83,1426.53 1943.25,1441.58 1937.75,1456.09C1909.45,1530.72 1857.52,1575.94 1684.17,1871.88C1666.99,1901.23 1635.53,1919.25 1601.53,1919.25C1567.53,1919.25 1536.07,1901.23 1518.89,1871.88C1345.54,1575.94 1293.43,1530.72 1265.13,1456.09C1259.63,1441.58 1254.06,1426.53 1248.76,1411.16L1237.73,1404.09C1216.08,1406.23 1193.95,1400.96 1175.24,1388.51C1146.08,1369.09 1129.84,1335.31 1132.9,1300.41L1140.59,1212.69L1130.62,1201.22C1123.15,1200.82 1115.91,1200.61 1109.17,1200.66L1086.21,1198.32L1064.04,1190.66L1042.11,1176.02L1022.65,1152.3L1010.47,1117.73L1012.09,1080.41L1030.72,1041C1033.34,1037.6 1038.44,1031.82 1043.39,1026.32L1046.09,1019.9C1047.41,998.557 1047.82,979.576 1047.67,964.834L1047.09,961.488C1041.69,945.846 1006.65,844.854 995.963,821.24C981.242,788.725 926.347,717.686 924.354,715.11C919.134,708.2 914.874,700.614 911.693,692.559L873.87,596.797C856.98,554.032 872.863,505.298 911.708,480.698C950.554,456.098 1001.4,462.574 1032.84,496.127L1077.37,543.651L1079.04,545.093C1103.95,562.475 1162.66,604.632 1188.57,634.948C1218.01,669.389 1308.73,803.301 1341.77,866.222L1362.15,920.07L1361.24,954.136L1369.42,964.713L1385.59,968.454C1410.42,974.197 1431.94,989.601 1445.38,1011.25C1451.8,1021.6 1456.12,1032.96 1458.25,1044.71L1467.46,1053.33C1490.22,1055.9 1511.56,1066.58 1527.34,1083.8C1547.78,1106.1 1556.47,1136.75 1550.8,1166.46C1548,1181.13 1543.37,1198.14 1540.18,1216.43C1538.15,1228.06 1535.15,1240.98 1540.31,1253.53C1557.87,1296.23 1541.08,1274.83 1592.32,1365.36L1610.71,1365.35C1661.89,1274.83 1645.01,1296.23 1662.57,1253.53C1667.73,1240.98 1664.73,1228.06 1662.7,1216.43C1659.51,1198.14 1654.88,1181.13 1652.08,1166.46C1646.41,1136.75 1655.11,1106.1 1675.54,1083.8C1691.32,1066.58 1712.66,1055.9 1735.42,1053.33L1744.63,1044.71C1746.76,1032.96 1751.08,1021.6 1757.5,1011.25C1770.95,989.601 1792.46,974.197 1817.3,968.454L1833.47,964.713L1841.65,954.136Z" style="fill:rgb(0,13,193);fill-opacity:0;"/>
        </g>
    </g>
    <g>
        <g transform="matrix(-0.545744,0,0,0.545744,1413.98,-106.824)">
            <path d="M1852.16,969.135L1819.22,976.755C1796.59,981.988 1776.99,996.021 1764.74,1015.75C1756.16,1029.58 1751.69,1045.41 1751.62,1061.42C1725.36,1059.77 1699.68,1070.07 1681.83,1089.56C1663.21,1109.87 1655.28,1137.79 1660.45,1164.86C1663.26,1179.57 1667.89,1196.62 1671.1,1214.97C1673.38,1228.07 1676.27,1242.63 1670.45,1256.77C1651.2,1303.6 1673.52,1273.21 1601.52,1398.68C1529.48,1273.21 1551.69,1303.6 1532.43,1256.77C1526.62,1242.63 1529.5,1228.07 1531.79,1214.97C1534.99,1196.62 1539.62,1179.57 1542.43,1164.86C1547.6,1137.79 1539.67,1109.87 1521.06,1089.56C1503.2,1070.07 1477.52,1059.77 1451.26,1061.42C1451.2,1045.41 1446.72,1029.58 1438.14,1015.75C1425.89,996.021 1406.29,981.988 1383.67,976.755L1350.72,969.135C1351.53,965.811 1352.29,962.69 1352.97,959.833L1353.96,921.568C1352.25,911.773 1346.42,893.495 1334.51,870.731C1301.95,808.482 1211.41,674.79 1182.09,640.484C1155.93,609.879 1095.81,567.013 1072.43,550.839L1026.62,501.953C997.98,471.386 951.657,465.485 916.267,487.897C880.877,510.308 866.407,554.706 881.795,593.667L919.618,689.429C922.53,696.8 926.432,703.741 931.217,710.058C931.217,710.058 988.532,784.165 1003.73,817.726C1014.95,842.514 1052.31,950.889 1056.16,962.086C1056.41,978.807 1055.93,1001.46 1054.16,1027.07C1047.75,1034.09 1039.98,1042.77 1037,1046.82L1020.19,1082.26L1018.7,1116.48L1029.79,1147.95L1047.59,1169.65L1067.66,1183.04L1087.96,1190.05L1108.51,1192.14C1121.38,1192.03 1136.1,1192.86 1150.77,1194.13L1141.39,1301.16C1138.6,1332.95 1153.39,1363.73 1179.96,1381.41C1201.28,1395.6 1227.44,1399.55 1251.55,1392.88C1258.31,1413.55 1265.79,1433.79 1273.1,1453.07C1301.31,1527.48 1353.4,1572.49 1526.24,1867.58C1541.9,1894.31 1570.55,1910.73 1601.53,1910.73C1632.51,1910.73 1661.16,1894.31 1676.82,1867.58C1849.67,1572.49 1901.57,1527.48 1929.78,1453.07C1937.09,1433.79 1944.57,1413.55 1951.34,1392.88C1975.44,1399.55 2001.61,1395.6 2022.92,1381.41C2049.49,1363.73 2064.28,1332.95 2061.5,1301.16L2052.12,1194.13C2066.78,1192.86 2081.51,1192.03 2094.37,1192.14L2114.93,1190.05L2135.23,1183.04L2155.3,1169.65L2173.1,1147.95L2184.18,1116.48L2182.69,1082.26L2165.89,1046.82C2162.9,1042.77 2155.14,1034.09 2148.73,1027.07C2146.96,1001.46 2146.48,978.807 2146.72,962.086C2150.58,950.889 2187.93,842.514 2199.16,817.726C2214.35,784.165 2271.67,710.058 2271.67,710.058C2276.45,703.741 2280.35,696.8 2283.26,689.429L2321.09,593.667C2336.48,554.706 2322.01,510.308 2286.62,487.897C2251.23,465.485 2204.9,471.386 2176.26,501.953L2130.46,550.834C2107.08,567.012 2046.95,609.879 2020.79,640.484C1991.47,674.79 1900.94,808.482 1868.37,870.731C1856.47,893.495 1850.63,911.773 1848.92,921.568L1849.92,959.833C1850.6,962.69 1851.35,965.811 1852.16,969.135Z"/>
            <path d="M1852.16,969.135L1819.22,976.755C1796.59,981.988 1776.99,996.021 1764.74,1015.75C1756.16,1029.58 1751.69,1045.41 1751.62,1061.42C1725.36,1059.77 1699.68,1070.07 1681.83,1089.56C1663.21,1109.87 1655.28,1137.79 1660.45,1164.86C1663.26,1179.57 1667.89,1196.62 1671.1,1214.97C1673.38,1228.07 1676.27,1242.63 1670.45,1256.77C1651.2,1303.6 1673.52,1273.21 1601.52,1398.68C1529.48,1273.21 1551.69,1303.6 1532.43,1256.77C1526.62,1242.63 1529.5,1228.07 1531.79,1214.97C1534.99,1196.62 1539.62,1179.57 1542.43,1164.86C1547.6,1137.79 1539.67,1109.87 1521.06,1089.56C1503.2,1070.07 1477.52,1059.77 1451.26,1061.42C1451.2,1045.41 1446.72,1029.58 1438.14,1015.75C1425.89,996.021 1406.29,981.988 1383.67,976.755L1350.72,969.135C1351.53,965.811 1352.29,962.69 1352.97,959.833L1353.96,921.568C1352.25,911.773 1346.42,893.495 1334.51,870.731C1301.95,808.482 1211.41,674.79 1182.09,640.484C1155.93,609.879 1095.81,567.013 1072.43,550.839L1026.62,501.953C997.98,471.386 951.657,465.485 916.267,487.897C880.877,510.308 866.407,554.706 881.795,593.667L919.618,689.429C922.53,696.8 926.432,703.741 931.217,710.058C931.217,710.058 988.532,784.165 1003.73,817.726C1014.95,842.514 1052.31,950.889 1056.16,962.086C1056.41,978.807 1055.93,1001.46 1054.16,1027.07C1047.75,1034.09 1039.98,1042.77 1037,1046.82L1020.19,1082.26L1018.7,1116.48L1029.79,1147.95L1047.59,1169.65L1067.66,1183.04L1087.96,1190.05L1108.51,1192.14C1121.38,1192.03 1136.1,1192.86 1150.77,1194.13L1141.39,1301.16C1138.6,1332.95 1153.39,1363.73 1179.96,1381.41C1201.28,1395.6 1227.44,1399.55 1251.55,1392.88C1258.31,1413.55 1265.79,1433.79 1273.1,1453.07C1301.31,1527.48 1353.4,1572.49 1526.24,1867.58C1541.9,1894.31 1570.55,1910.73 1601.53,1910.73C1632.51,1910.73 1661.16,1894.31 1676.82,1867.58C1849.67,1572.49 1901.57,1527.48 1929.78,1453.07C1937.09,1433.79 1944.57,1413.55 1951.34,1392.88C1975.44,1399.55 2001.61,1395.6 2022.92,1381.41C2049.49,1363.73 2064.28,1332.95 2061.5,1301.16L2052.12,1194.13C2066.78,1192.86 2081.51,1192.03 2094.37,1192.14L2114.93,1190.05L2135.23,1183.04L2155.3,1169.65L2173.1,1147.95L2184.18,1116.48L2182.69,1082.26L2165.89,1046.82C2162.9,1042.77 2155.14,1034.09 2148.73,1027.07C2146.96,1001.46 2146.48,978.807 2146.72,962.086C2150.58,950.889 2187.93,842.514 2199.16,817.726C2214.35,784.165 2271.67,710.058 2271.67,710.058C2276.45,703.741 2280.35,696.8 2283.26,689.429L2321.09,593.667C2336.48,554.706 2322.01,510.308 2286.62,487.897C2251.23,465.485 2204.9,471.386 2176.26,501.953L2130.46,550.834C2107.08,567.012 2046.95,609.879 2020.79,640.484C1991.47,674.79 1900.94,808.482 1868.37,870.731C1856.47,893.495 1850.63,911.773 1848.92,921.568L1849.92,959.833C1850.6,962.69 1851.35,965.811 1852.16,969.135ZM1862.43,966.629C1861.72,963.736 1861.06,960.997 1860.45,958.454L1859.51,922.39C1861.34,912.969 1866.93,896.283 1877.74,875.628C1910.02,813.915 1999.76,681.36 2028.83,647.35C2054.48,617.332 2113.54,575.391 2136.47,559.524L2138.17,558.059L2183.97,509.177C2209.15,482.312 2249.86,477.126 2280.96,496.823C2312.07,516.521 2324.78,555.543 2311.26,589.786L2273.44,685.547C2270.88,692.016 2267.46,698.107 2263.28,703.634C2261.76,705.607 2204.81,779.63 2189.53,813.368C2178.24,838.316 2140.61,947.379 2136.73,958.648L2136.16,961.928C2135.91,978.878 2136.39,1001.84 2138.19,1027.8L2140.93,1034.19C2146.69,1040.5 2153.61,1048.19 2156.8,1052.33L2172.23,1084.85L2173.54,1114.89L2163.75,1142.69L2148.12,1161.73L2130.49,1173.5L2112.64,1179.67L2093.89,1181.57C2080.85,1181.49 2066,1182.32 2051.2,1183.6L2041.59,1195.05L2050.97,1302.08C2053.42,1330.02 2040.42,1357.07 2017.07,1372.62C1998.34,1385.09 1975.34,1388.55 1954.15,1382.7L1941.3,1389.6C1934.58,1410.11 1927.15,1430.19 1919.9,1449.32C1891.79,1523.46 1839.92,1568.22 1667.7,1862.24C1653.94,1885.73 1628.76,1900.17 1601.53,1900.17C1574.3,1900.17 1549.12,1885.73 1535.36,1862.24C1363.14,1568.22 1311.09,1523.46 1282.98,1449.32C1275.73,1430.19 1268.3,1410.11 1261.59,1389.6L1248.73,1382.7C1227.55,1388.55 1204.55,1385.09 1185.81,1372.62C1162.46,1357.07 1149.46,1330.02 1151.91,1302.08L1161.29,1195.05L1151.68,1183.6C1136.89,1182.32 1122.04,1181.49 1109.01,1181.57L1090.25,1179.67L1072.39,1173.5L1054.76,1161.73L1039.13,1142.69L1029.35,1114.89L1030.65,1084.85L1046.08,1052.32C1049.28,1048.19 1056.2,1040.5 1061.96,1034.19L1064.7,1027.8C1066.49,1001.84 1066.98,978.878 1066.72,961.928L1066.15,958.648C1062.27,947.379 1024.65,838.316 1013.35,813.368C998.119,779.722 941.437,706.012 939.578,703.598C935.401,698.067 931.992,691.995 929.446,685.547L891.623,589.786C878.098,555.543 890.816,516.521 921.92,496.823C953.025,477.126 993.738,482.312 1018.91,509.178L1064.72,558.064L1066.42,559.529C1089.35,575.392 1148.4,617.332 1174.06,647.35C1203.13,681.36 1292.86,813.915 1325.15,875.628C1335.95,896.283 1341.54,912.969 1343.37,922.398L1342.43,958.457C1341.82,961 1341.16,963.737 1340.46,966.629L1348.34,979.429L1381.29,987.05C1401.17,991.649 1418.4,1003.98 1429.16,1021.32C1436.71,1033.48 1440.64,1047.39 1440.69,1061.46L1451.92,1071.96C1475,1070.51 1497.57,1079.57 1513.27,1096.69C1529.63,1114.55 1536.6,1139.09 1532.05,1162.88C1529.24,1177.64 1524.59,1194.75 1521.38,1213.15C1518.77,1228.08 1516.03,1244.67 1522.66,1260.79C1542.08,1308.03 1519.68,1277.37 1592.36,1403.94L1610.69,1403.93C1683.31,1277.37 1660.8,1308.03 1680.22,1260.79C1686.85,1244.67 1684.11,1228.08 1681.51,1213.15C1678.29,1194.75 1673.65,1177.64 1670.83,1162.88C1666.29,1139.09 1673.25,1114.55 1689.62,1096.69C1705.31,1079.57 1727.88,1070.51 1750.96,1071.96L1762.19,1061.46C1762.25,1047.39 1766.18,1033.48 1773.72,1021.32C1784.48,1003.98 1801.71,991.649 1821.6,987.05L1854.54,979.429L1862.43,966.629Z" style="fill:rgb(0,13,193);fill-opacity:0;"/>
        </g>
        <g transform="matrix(-0.545744,0,0,0.545744,1413.98,-106.824)">
            <path d="M1601.53,1823.48C1433.85,1537.21 1382.06,1494.32 1354.69,1422.13C1335.88,1372.51 1313.87,1315.73 1313.87,1263.84L1228.31,1308.78L1245,1118.37C1245,1118.37 1161.79,1104.42 1107.74,1104.89C1093.63,1105.01 1137.82,1072.26 1139.15,1058.21C1143.12,1016.3 1143.89,978.921 1143.29,954.958C1142.66,930.281 1097.97,814.341 1083.21,781.738C1065.75,743.162 1000.77,657.376 1000.77,657.376L962.95,561.614L1015.24,617.418C1015.24,617.418 1088.25,664.987 1115.76,697.177C1149.81,737.012 1272.46,921.277 1268.09,939.599C1262.63,962.496 1252.32,1003.43 1244.76,1027.62C1243.02,1033.18 1268.14,1039.59 1268.14,1039.59L1364.01,1061.77L1340.68,1160.3L1456.72,1148.5C1449.52,1186.26 1430.82,1239.1 1451.73,1289.95C1476.83,1351 1433.85,1286 1601.53,1572.26C1769.21,1286 1726.05,1351 1751.15,1289.95C1772.06,1239.1 1753.37,1186.26 1746.16,1148.5L1862.2,1160.3L1838.88,1061.77L1934.74,1039.59C1934.74,1039.59 1959.86,1033.18 1958.12,1027.62C1950.57,1003.43 1940.25,962.496 1934.79,939.599C1930.42,921.277 2053.07,737.012 2087.12,697.177C2114.63,664.987 2187.64,617.418 2187.64,617.418L2239.93,561.614L2202.11,657.376C2202.11,657.376 2137.13,743.162 2119.67,781.738C2104.91,814.341 2060.22,930.281 2059.6,954.958C2058.99,978.921 2059.77,1016.3 2063.74,1058.21C2065.07,1072.26 2109.25,1105.01 2095.14,1104.89C2041.09,1104.42 1957.88,1118.37 1957.88,1118.37L1974.57,1308.78L1889.01,1263.84C1889.01,1315.73 1867.01,1372.51 1848.19,1422.13C1820.82,1494.32 1769.21,1537.21 1601.53,1823.48Z" style="fill:url(#_Radial2);"/>
            <path d="M1601.53,1823.48C1769.21,1537.21 1820.82,1494.32 1848.19,1422.13C1867.01,1372.51 1889.01,1315.73 1889.01,1263.84L1974.57,1308.78L1957.88,1118.37C1957.88,1118.37 2041.09,1104.42 2095.14,1104.89C2109.25,1105.01 2065.07,1072.26 2063.74,1058.21C2059.77,1016.3 2058.99,978.921 2059.6,954.958C2060.22,930.281 2104.91,814.341 2119.67,781.738C2137.13,743.162 2202.11,657.376 2202.11,657.376L2239.93,561.614L2187.64,617.418C2187.64,617.418 2114.63,664.987 2087.12,697.177C2053.07,737.012 1930.42,921.277 1934.79,939.599C1940.25,962.496 1950.57,1003.43 1958.12,1027.62C1959.86,1033.18 1934.74,1039.59 1934.74,1039.59L1838.88,1061.77L1862.2,1160.3L1746.16,1148.5C1753.37,1186.26 1772.06,1239.1 1751.15,1289.95C1726.05,1351 1769.21,1286 1601.53,1572.26C1433.85,1286 1476.83,1351 1451.73,1289.95C1430.82,1239.1 1449.52,1186.26 1456.72,1148.5L1340.68,1160.3L1364.01,1061.77L1268.14,1039.59C1268.14,1039.59 1243.02,1033.18 1244.76,1027.62C1252.32,1003.43 1262.63,962.496 1268.09,939.599C1272.46,921.277 1149.81,737.012 1115.76,697.177C1088.25,664.987 1015.24,617.418 1015.24,617.418L962.95,561.614L1000.77,657.376C1000.77,657.376 1065.75,743.162 1083.21,781.738C1097.97,814.341 1142.66,930.281 1143.29,954.958C1143.89,978.921 1143.12,1016.3 1139.15,1058.21C1137.82,1072.26 1093.63,1105.01 1107.74,1104.89C1161.79,1104.42 1245,1118.37 1245,1118.37L1228.31,1308.78L1313.87,1263.84C1313.87,1315.73 1335.88,1372.51 1354.69,1422.13C1382.06,1494.32 1433.85,1537.21 1601.53,1823.48ZM2077.58,1094.61C2024.06,1096.59 1956.14,1107.95 1956.14,1107.95L1947.36,1119.29L1962.36,1290.43L1893.93,1254.49L1878.45,1263.84C1878.45,1314.52 1856.69,1369.92 1838.31,1418.39C1811.55,1488.98 1761.36,1531.36 1601.53,1802.62C1441.7,1531.36 1391.34,1488.98 1364.57,1418.39C1346.19,1369.92 1324.44,1314.52 1324.44,1263.84L1308.96,1254.49L1240.52,1290.43L1255.52,1119.29L1246.75,1107.95C1246.75,1107.95 1178.82,1096.59 1125.3,1094.61C1128.87,1090.66 1132.76,1086.33 1135.92,1082.76C1143.65,1074.05 1149.11,1065.11 1149.67,1059.2C1153.68,1016.78 1154.46,978.946 1153.85,954.69C1153.21,929.452 1107.94,810.725 1092.84,777.38C1076.3,740.858 1017.92,662.617 1010.08,652.165L993.139,609.286L1007.53,624.642L1009.47,626.27C1009.47,626.27 1080.86,672.607 1107.73,704.042C1134.72,735.615 1217.86,858.781 1247.83,916.074C1253.02,925.99 1256.88,936.47 1257.54,938.292C1252.06,961.203 1242.05,1000.87 1234.67,1024.46L1234.13,1028.9L1235,1032.84L1236.88,1036.16L1239.87,1039.21C1246.49,1044.57 1265.53,1049.83 1265.76,1049.89L1351.28,1069.67L1330.4,1157.87L1341.75,1170.81L1443.44,1160.47C1435.12,1198.33 1422.64,1246.97 1441.96,1293.97C1467.17,1355.3 1423.96,1290.02 1592.41,1577.6L1610.65,1577.6C1779.1,1290.02 1735.71,1355.3 1760.92,1293.97C1780.25,1246.97 1767.76,1198.33 1759.44,1160.47L1861.14,1170.81L1872.49,1157.87L1851.61,1069.67C1851.61,1069.67 1937.12,1049.89 1937.36,1049.83C1937.36,1049.83 1956.4,1044.57 1963.01,1039.21L1966.01,1036.16L1967.88,1032.84L1968.76,1028.9L1968.21,1024.46C1960.84,1000.87 1950.82,961.203 1945.34,938.292C1946,936.47 1949.87,925.99 1955.05,916.074C1985.02,858.781 2068.17,735.615 2095.15,704.042C2122.02,672.607 2193.41,626.27 2193.41,626.27L2195.36,624.642L2209.74,609.286L2192.81,652.161C2184.96,662.621 2126.58,740.859 2110.04,777.38C2094.95,810.725 2049.67,929.452 2049.03,954.69C2048.42,978.946 2049.2,1016.78 2053.22,1059.2C2053.78,1065.11 2059.23,1074.05 2066.96,1082.76C2070.12,1086.33 2074.02,1090.66 2077.58,1094.61Z" style="fill:rgb(0,13,193);fill-opacity:0;"/>
        </g>
    </g>
    <defs>
        <radialGradient id="_Radial1" cx="0" cy="0" r="1" gradientUnits="userSpaceOnUse" gradientTransform="matrix(1276.98,0,0,1261.86,962.95,1192.55)"><stop offset="0" style="stop-color:rgb(168,61,255);stop-opacity:1"/><stop offset="1" style="stop-color:rgb(68,117,213);stop-opacity:1"/></radialGradient>
        <radialGradient id="_Radial2" cx="0" cy="0" r="1" gradientUnits="userSpaceOnUse" gradientTransform="matrix(1276.98,0,0,1261.86,962.95,1192.55)"><stop offset="0" style="stop-color:rgb(168,61,255);stop-opacity:1"/><stop offset="1" style="stop-color:rgb(68,117,213);stop-opacity:1"/></radialGradient>
    </defs>
</svg>
