<?xml version="1.0" encoding="UTF-8" standalone="no"?>
<!DOCTYPE svg PUBLIC "-//W3C//DTD SVG 1.1//EN" "http://www.w3.org/Graphics/SVG/1.1/DTD/svg11.dtd">
<svg width="100%" height="100%" viewBox="0 0 1080 1080" version="1.1" xmlns="http://www.w3.org/2000/svg" xmlns:xlink="http://www.w3.org/1999/xlink" xml:space="preserve" xmlns:serif="http://www.serif.com/" style="fill-rule:evenodd;clip-rule:evenodd;stroke-linejoin:round;stroke-miterlimit:2;">
    <g transform="matrix(1,0,0,1,0,68)">
        <g transform="matrix(-0.545744,0,0,0.545744,1413.98,-106.824)">
            <path d="M1831.09,954.419L1814.91,958.159L1762.11,1043.23L1756.92,1042.71L1641.7,1168.44C1644.5,1183.07 1649.11,1200.02 1652.3,1218.25C1654.01,1228.05 1657.15,1238.93 1652.8,1249.51C1635.43,1291.76 1652.15,1270.6 1601.51,1360.15C1550.83,1270.6 1567.45,1291.76 1550.09,1249.51C1545.74,1238.93 1548.88,1228.05 1550.59,1218.25C1553.77,1200.02 1558.39,1183.07 1561.18,1168.44L1445.97,1042.71L1440.78,1043.23L1387.97,958.159L1371.8,954.419L1372.77,918.275L1351.42,861.883C1318.35,798.667 1226.38,662.921 1196.6,628.083C1170.2,597.194 1110.47,554.137 1085.08,536.427L1040.55,488.902L864.043,600.679L901.866,696.441L916.002,721.583C916.002,721.583 971.64,793.135 986.338,825.598C996.959,849.058 1031.74,949.399 1037.11,964.94C1037.25,979.478 1036.84,998.198 1035.54,1019.25C1029.92,1025.5 1024.14,1032.1 1021.62,1035.51L1001.63,1077.82L999.828,1119.32L1013.3,1157.57L1034.93,1183.94L1059.31,1200.2L1083.91,1208.71L1108.68,1211.23C1115.38,1211.17 1122.61,1211.38 1130.06,1211.77L1122.37,1299.49L1223.82,1367.03C1232.7,1398.95 1244.13,1430.48 1255.25,1459.83C1283.65,1534.73 1335.8,1580.21 1509.77,1877.23L1693.29,1877.23C1867.27,1580.21 1919.23,1534.73 1947.63,1459.83C1958.76,1430.48 1970.18,1398.95 1979.06,1367.03L2080.51,1299.49L2072.82,1211.77C2080.28,1211.38 2087.5,1211.17 2094.21,1211.23L2118.97,1208.71L2143.57,1200.2L2167.95,1183.94L2189.59,1157.57L2203.05,1119.32L2201.26,1077.82L2181.26,1035.51C2178.75,1032.1 2172.97,1025.5 2167.34,1019.25C2166.04,998.198 2165.63,979.478 2165.78,964.94C2171.15,949.399 2205.93,849.058 2216.55,825.598C2231.24,793.135 2286.88,721.583 2286.88,721.583L2301.02,696.441L2338.84,600.679L2162.33,488.902L2117.81,536.423C2092.41,554.139 2032.68,597.195 2006.28,628.083C1976.51,662.921 1884.53,798.667 1851.46,861.883L1830.12,918.275L1831.09,954.419Z"/>
            <path d="M1831.09,954.419L1814.91,958.159L1762.11,1043.23L1756.92,1042.71L1641.7,1168.44C1644.5,1183.07 1649.11,1200.02 1652.3,1218.25C1654.01,1228.05 1657.15,1238.93 1652.8,1249.51C1635.43,1291.76 1652.15,1270.6 1601.51,1360.15C1550.83,1270.6 1567.45,1291.76 1550.09,1249.51C1545.74,1238.93 1548.88,1228.05 1550.59,1218.25C1553.77,1200.02 1558.39,1183.07 1561.18,1168.44L1445.97,1042.71L1440.78,1043.23L1387.97,958.159L1371.8,954.419L1372.77,918.275L1351.42,861.883C1318.35,798.667 1226.38,662.921 1196.6,628.083C1170.2,597.194 1110.47,554.137 1085.08,536.427L1040.55,488.902L864.043,600.679L901.866,696.441L916.002,721.583C916.002,721.583 971.64,793.135 986.338,825.598C996.959,849.058 1031.74,949.399 1037.11,964.94C1037.25,979.478 1036.84,998.198 1035.54,1019.25C1029.92,1025.5 1024.14,1032.1 1021.62,1035.51L1001.63,1077.82L999.828,1119.32L1013.3,1157.57L1034.93,1183.94L1059.31,1200.2L1083.91,1208.71L1108.68,1211.23C1115.38,1211.17 1122.61,1211.38 1130.06,1211.77L1122.37,1299.49L1223.82,1367.03C1232.7,1398.95 1244.13,1430.48 1255.25,1459.83C1283.65,1534.73 1335.8,1580.21 1509.77,1877.23L1693.29,1877.23C1867.27,1580.21 1919.23,1534.73 1947.63,1459.83C1958.76,1430.48 1970.18,1398.95 1979.06,1367.03L2080.51,1299.49L2072.82,1211.77C2080.28,1211.38 2087.5,1211.17 2094.21,1211.23L2118.97,1208.71L2143.57,1200.2L2167.95,1183.94L2189.59,1157.57L2203.05,1119.32L2201.26,1077.82L2181.26,1035.51C2178.75,1032.1 2172.97,1025.5 2167.34,1019.25C2166.04,998.198 2165.63,979.478 2165.78,964.94C2171.15,949.399 2205.93,849.058 2216.55,825.598C2231.24,793.135 2286.88,721.583 2286.88,721.583L2301.02,696.441L2338.84,600.679L2162.33,488.902L2117.81,536.423C2092.41,554.139 2032.68,597.195 2006.28,628.083C1976.51,662.921 1884.53,798.667 1851.46,861.883L1830.12,918.275L1831.09,954.419ZM1441.67,1053.66L1549.77,1171.63C1546.95,1185.07 1543.01,1200.25 1540.18,1216.43C1538.15,1228.06 1535.15,1240.98 1540.31,1253.53C1557.87,1296.23 1541.08,1274.83 1592.32,1365.36L1610.71,1365.35C1661.89,1274.83 1645.01,1296.23 1662.57,1253.53C1667.73,1240.98 1664.73,1228.06 1662.7,1216.43C1659.88,1200.25 1655.93,1185.07 1653.12,1171.63L1761.21,1053.66L1771.08,1048.81L1821.57,967.464L1833.47,964.713L1841.65,954.136L1840.74,920.07L1861.12,866.209C1894.17,803.285 1984.88,669.387 2014.32,634.948C2040.23,604.633 2098.93,562.476 2123.85,545.089L2125.52,543.648L2164.07,502.506L2325.8,604.928L2291.45,691.89L2278.05,715.728C2272.5,722.934 2221.09,789.938 2206.92,821.24C2196.23,844.854 2161.2,945.846 2155.79,961.488L2155.21,964.834C2155.07,979.576 2155.48,998.557 2156.8,1019.9L2159.49,1026.32C2164.44,1031.83 2169.54,1037.6 2172.17,1041.01L2190.79,1080.41L2192.41,1117.73L2180.24,1152.3L2160.78,1176.02L2138.84,1190.66L2116.68,1198.32L2093.72,1200.66C2086.98,1200.61 2079.73,1200.82 2072.26,1201.22L2062.3,1212.69L2069.44,1294.17L1973.21,1358.23L1968.88,1364.19C1960.09,1395.81 1948.77,1427.03 1937.75,1456.09C1909.62,1530.28 1858.14,1575.4 1687.24,1866.66L1515.83,1866.66C1344.92,1575.4 1293.26,1530.27 1265.13,1456.09C1254.12,1427.03 1242.8,1395.81 1234,1364.19L1229.68,1358.23L1133.45,1294.17L1140.59,1212.69L1130.62,1201.22C1123.15,1200.82 1115.91,1200.61 1109.17,1200.66L1086.21,1198.32L1064.04,1190.66L1042.11,1176.02L1022.65,1152.3L1010.47,1117.73L1012.09,1080.41L1030.72,1041C1033.34,1037.6 1038.44,1031.82 1043.39,1026.32L1046.09,1019.9C1047.41,998.557 1047.82,979.576 1047.67,964.834L1047.09,961.488C1041.69,945.846 1006.65,844.854 995.963,821.24C981.792,789.94 930.394,722.941 924.835,715.733L911.429,691.89L877.082,604.928L1038.82,502.506L1077.37,543.651L1079.04,545.093C1103.95,562.475 1162.66,604.632 1188.57,634.948C1218.01,669.389 1308.73,803.301 1341.77,866.222L1362.15,920.07L1361.24,954.136L1369.42,964.713L1381.31,967.464L1431.8,1048.81L1441.67,1053.66Z" style="fill:rgb(0,13,193);fill-opacity:0;"/>
        </g>
        <g transform="matrix(-0.545744,0,0,0.545744,1413.98,-106.824)">
            <path d="M1831.09,954.419L1710.77,982.247L1724.3,1039.39L1614.94,1028.27L1641.7,1168.44C1644.5,1183.07 1649.11,1200.02 1652.3,1218.25C1654.01,1228.05 1657.15,1238.93 1652.8,1249.51C1635.43,1291.76 1652.15,1270.6 1601.51,1360.15C1550.83,1270.6 1567.45,1291.76 1550.09,1249.51C1545.74,1238.93 1548.88,1228.05 1550.59,1218.25C1553.77,1200.02 1558.39,1183.07 1561.18,1168.44L1587.94,1028.27L1478.58,1039.39L1492.11,982.247C1492.11,982.247 1427.22,967.239 1371.8,954.424L1372.77,918.275L1351.42,861.883C1318.35,798.667 1226.38,662.921 1196.6,628.083C1170.2,597.194 1110.47,554.137 1085.08,536.427L659.112,81.822L907.213,709.979L916.002,721.583C916.002,721.583 971.64,793.135 986.338,825.598C996.959,849.058 1031.74,949.399 1037.11,964.94C1037.25,979.478 1036.84,998.198 1035.54,1019.25C1029.92,1025.5 1024.14,1032.1 1021.62,1035.51L1001.63,1077.82L999.828,1119.32L1013.3,1157.57L1034.93,1183.94L1059.31,1200.2L1083.91,1208.71L1108.68,1211.23C1115.38,1211.17 1122.61,1211.38 1130.06,1211.77L1105.37,1493.46L1241.36,1422.04C1245.91,1434.93 1250.61,1447.57 1255.25,1459.83C1283.65,1534.73 1335.8,1580.21 1509.77,1877.23L1601.53,2033.88L1693.29,1877.23C1867.27,1580.21 1919.23,1534.73 1947.63,1459.83C1952.28,1447.57 1956.98,1434.93 1961.52,1422.04L2097.51,1493.46L2072.82,1211.77C2080.28,1211.38 2087.5,1211.17 2094.21,1211.23L2118.97,1208.71L2143.57,1200.2L2167.95,1183.94L2189.59,1157.57L2203.05,1119.32L2201.26,1077.82L2181.26,1035.51C2178.75,1032.1 2172.97,1025.5 2167.34,1019.25C2166.04,998.198 2165.63,979.478 2165.78,964.94C2171.15,949.399 2205.93,849.058 2216.55,825.598C2231.24,793.135 2286.88,721.583 2286.88,721.583L2295.67,709.979L2543.77,81.822L2117.81,536.423C2092.41,554.139 2032.68,597.195 2006.28,628.083C1976.51,662.921 1884.53,798.667 1851.46,861.883L1830.12,918.275L1831.09,954.419ZM1294.45,936.555C1294.42,936.549 1294.42,936.549 1294.45,936.555Z" style="fill:url(#_Radial1);"/>
            <path d="M1831.09,954.419L1710.77,982.247L1724.3,1039.39L1614.94,1028.27L1641.7,1168.44C1644.5,1183.07 1649.11,1200.02 1652.3,1218.25C1654.01,1228.05 1657.15,1238.93 1652.8,1249.51C1635.43,1291.76 1652.15,1270.6 1601.51,1360.15C1550.83,1270.6 1567.45,1291.76 1550.09,1249.51C1545.74,1238.93 1548.88,1228.05 1550.59,1218.25C1553.77,1200.02 1558.39,1183.07 1561.18,1168.44L1587.94,1028.27L1478.58,1039.39L1492.11,982.247C1492.11,982.247 1427.22,967.239 1371.8,954.424L1372.77,918.275L1351.42,861.883C1318.35,798.667 1226.38,662.921 1196.6,628.083C1170.2,597.194 1110.47,554.137 1085.08,536.427L659.112,81.822L907.213,709.979L916.002,721.583C916.002,721.583 971.64,793.135 986.338,825.598C996.959,849.058 1031.74,949.399 1037.11,964.94C1037.25,979.478 1036.84,998.198 1035.54,1019.25C1029.92,1025.5 1024.14,1032.1 1021.62,1035.51L1001.63,1077.82L999.828,1119.32L1013.3,1157.57L1034.93,1183.94L1059.31,1200.2L1083.91,1208.71L1108.68,1211.23C1115.38,1211.17 1122.61,1211.38 1130.06,1211.77L1105.37,1493.46L1241.36,1422.04C1245.91,1434.93 1250.61,1447.57 1255.25,1459.83C1283.65,1534.73 1335.8,1580.21 1509.77,1877.23L1601.53,2033.88L1693.29,1877.23C1867.27,1580.21 1919.23,1534.73 1947.63,1459.83C1952.28,1447.57 1956.98,1434.93 1961.52,1422.04L2097.51,1493.46L2072.82,1211.77C2080.28,1211.38 2087.5,1211.17 2094.21,1211.23L2118.97,1208.71L2143.57,1200.2L2167.95,1183.94L2189.59,1157.57L2203.05,1119.32L2201.26,1077.82L2181.26,1035.51C2178.75,1032.1 2172.97,1025.5 2167.34,1019.25C2166.04,998.198 2165.63,979.478 2165.78,964.94C2171.15,949.399 2205.93,849.058 2216.55,825.598C2231.24,793.135 2286.88,721.583 2286.88,721.583L2295.67,709.979L2543.77,81.822L2117.81,536.423C2092.41,554.139 2032.68,597.195 2006.28,628.083C1976.51,662.921 1884.53,798.667 1851.46,861.883L1830.12,918.275L1831.09,954.419ZM1841.65,954.136L1840.74,920.07L1861.12,866.209C1894.17,803.285 1984.88,669.387 2014.32,634.948C2040.23,604.633 2098.93,562.476 2123.85,545.089L2125.52,543.648L2513.58,129.495L2286.38,704.753L2278.53,715.111C2277.62,716.284 2221.79,788.404 2206.92,821.24C2196.23,844.854 2161.2,945.846 2155.79,961.488L2155.21,964.834C2155.07,979.576 2155.48,998.557 2156.8,1019.9L2159.49,1026.32C2164.44,1031.83 2169.54,1037.6 2172.17,1041.01L2190.79,1080.41L2192.41,1117.73L2180.24,1152.3L2160.78,1176.02L2138.84,1190.66L2116.68,1198.32L2093.72,1200.66C2086.98,1200.61 2079.73,1200.82 2072.26,1201.22L2062.3,1212.69L2085.3,1475.11L1966.43,1412.68L1951.56,1418.53C1947.04,1431.34 1942.37,1443.9 1937.75,1456.09C1909.45,1530.72 1857.52,1575.94 1684.17,1871.88L1601.53,2012.97L1518.89,1871.88C1345.54,1575.94 1293.43,1530.72 1265.13,1456.09C1260.52,1443.9 1255.84,1431.34 1251.33,1418.53L1236.45,1412.68L1117.59,1475.11L1140.59,1212.69L1130.62,1201.22C1123.15,1200.82 1115.91,1200.61 1109.17,1200.66L1086.21,1198.32L1064.04,1190.66L1042.11,1176.02L1022.65,1152.3L1010.47,1117.73L1012.09,1080.41L1030.72,1041C1033.34,1037.6 1038.44,1031.82 1043.39,1026.32L1046.09,1019.9C1047.41,998.557 1047.82,979.576 1047.67,964.834L1047.09,961.488C1041.69,945.846 1006.65,844.854 995.963,821.24C981.235,788.708 926.291,717.614 924.393,715.162L916.509,704.752L689.302,129.494L1077.37,543.651L1079.04,545.093C1103.95,562.475 1162.66,604.632 1188.57,634.948C1218.01,669.389 1308.73,803.301 1341.77,866.222L1362.15,920.07L1361.24,954.141L1369.42,964.719C1411.43,974.432 1458.88,985.406 1479.38,990.149L1468.3,1036.95L1479.65,1049.9L1574.9,1040.22L1550.8,1166.46C1548,1181.13 1543.37,1198.14 1540.18,1216.43C1538.15,1228.06 1535.15,1240.98 1540.31,1253.53C1557.87,1296.23 1541.08,1274.83 1592.32,1365.36L1610.71,1365.35C1661.89,1274.83 1645.01,1296.23 1662.57,1253.53C1667.73,1240.98 1664.73,1228.06 1662.7,1216.43C1659.51,1198.14 1654.88,1181.13 1652.08,1166.46L1627.98,1040.22L1723.23,1049.9L1734.58,1036.95L1723.5,990.148L1833.47,964.713L1841.65,954.136ZM1292.18,946.876C1292.44,946.933 1292.59,946.956 1292.62,946.961C1296.15,947.573 1298.08,946.471 1298.41,946.337L1294.43,947.117L1304.92,935.306C1304.92,935.258 1304.65,928.12 1296.95,926.288L1294.05,938.824L1294.01,937.944L1292.09,946.206L1292.33,946.227L1292.18,946.876ZM1296.95,926.288L1296.71,926.235L1296.71,926.24L1296.95,926.288ZM1296.71,926.24L1296.24,926.14L1293.46,926.029L1294.01,937.944L1296.71,926.24ZM1292.09,946.206C1291.38,946.143 1290.56,946.057 1289.75,945.807L1291.5,946.703L1291.95,946.817L1292.09,946.206ZM1291.95,946.817L1291.95,946.822L1292.18,946.876L1291.95,946.817ZM1289.75,945.807L1287.91,944.866C1288.49,945.322 1289.12,945.614 1289.75,945.807Z" style="fill:rgb(0,13,193);fill-opacity:0;"/>
        </g>
    </g>
    <g transform="matrix(1,0,0,1,0,68)">
        <g transform="matrix(-0.545744,0,0,0.545744,1413.98,-106.824)">
            <path d="M1852.16,969.135L1733.77,996.52L1749.05,1061.09L1638.5,1049.85L1660.45,1164.86C1663.26,1179.57 1667.89,1196.62 1671.1,1214.97C1673.38,1228.07 1676.27,1242.63 1670.45,1256.77C1651.2,1303.6 1673.52,1273.21 1601.52,1398.68C1529.48,1273.21 1551.69,1303.6 1532.43,1256.77C1526.62,1242.63 1529.5,1228.07 1531.79,1214.97C1534.99,1196.62 1539.62,1179.57 1542.43,1164.86L1564.39,1049.85L1453.83,1061.09L1469.12,996.52L1350.72,969.135C1351.53,965.811 1352.29,962.69 1352.97,959.833L1353.96,921.568C1352.25,911.773 1346.42,893.495 1334.51,870.731C1301.95,808.482 1211.41,674.79 1182.09,640.484C1155.93,609.879 1095.81,567.013 1072.43,550.839L713.647,167.938L924.006,700.538L931.217,710.058C931.217,710.058 988.532,784.165 1003.73,817.726C1014.95,842.514 1052.31,950.889 1056.16,962.086C1056.41,978.807 1055.93,1001.46 1054.16,1027.07C1047.75,1034.09 1039.98,1042.77 1037,1046.82L1020.19,1082.26L1018.7,1116.48L1029.79,1147.95L1047.59,1169.65L1067.66,1183.04L1087.96,1190.05L1108.51,1192.14C1121.38,1192.03 1136.1,1192.86 1150.77,1194.13L1127.44,1460.31L1252.18,1394.8C1258.78,1414.8 1266.02,1434.39 1273.1,1453.07C1301.31,1527.48 1353.4,1572.49 1526.24,1867.58L1601.53,1996.12L1676.82,1867.58C1849.67,1572.49 1901.57,1527.48 1929.78,1453.07C1936.86,1434.39 1944.11,1414.8 1950.71,1394.8L2075.45,1460.31L2052.12,1194.13C2066.78,1192.86 2081.51,1192.03 2094.37,1192.14L2114.93,1190.05L2135.23,1183.04L2155.3,1169.65L2173.1,1147.95L2184.18,1116.48L2182.69,1082.26L2165.89,1046.82C2162.9,1042.77 2155.14,1034.09 2148.73,1027.07C2146.96,1001.46 2146.48,978.807 2146.72,962.086C2150.58,950.889 2187.93,842.514 2199.16,817.726C2214.35,784.165 2271.67,710.058 2271.67,710.058L2278.88,700.538L2489.24,167.938L2130.46,550.834C2107.08,567.012 2046.95,609.879 2020.79,640.484C1991.47,674.79 1900.94,808.482 1868.37,870.731C1856.47,893.495 1850.63,911.773 1848.92,921.568L1849.92,959.833C1850.6,962.69 1851.35,965.811 1852.16,969.135Z"/>
            <path d="M1852.16,969.135L1733.77,996.52L1749.05,1061.09L1638.5,1049.85L1660.45,1164.86C1663.26,1179.57 1667.89,1196.62 1671.1,1214.97C1673.38,1228.07 1676.27,1242.63 1670.45,1256.77C1651.2,1303.6 1673.52,1273.21 1601.52,1398.68C1529.48,1273.21 1551.69,1303.6 1532.43,1256.77C1526.62,1242.63 1529.5,1228.07 1531.79,1214.97C1534.99,1196.62 1539.62,1179.57 1542.43,1164.86L1564.39,1049.85L1453.83,1061.09L1469.12,996.52L1350.72,969.135C1351.53,965.811 1352.29,962.69 1352.97,959.833L1353.96,921.568C1352.25,911.773 1346.42,893.495 1334.51,870.731C1301.95,808.482 1211.41,674.79 1182.09,640.484C1155.93,609.879 1095.81,567.013 1072.43,550.839L713.647,167.938L924.006,700.538L931.217,710.058C931.217,710.058 988.532,784.165 1003.73,817.726C1014.95,842.514 1052.31,950.889 1056.16,962.086C1056.41,978.807 1055.93,1001.46 1054.16,1027.07C1047.75,1034.09 1039.98,1042.77 1037,1046.82L1020.19,1082.26L1018.7,1116.48L1029.79,1147.95L1047.59,1169.65L1067.66,1183.04L1087.96,1190.05L1108.51,1192.14C1121.38,1192.03 1136.1,1192.86 1150.77,1194.13L1127.44,1460.31L1252.18,1394.8C1258.78,1414.8 1266.02,1434.39 1273.1,1453.07C1301.31,1527.48 1353.4,1572.49 1526.24,1867.58L1601.53,1996.12L1676.82,1867.58C1849.67,1572.49 1901.57,1527.48 1929.78,1453.07C1936.86,1434.39 1944.11,1414.8 1950.71,1394.8L2075.45,1460.31L2052.12,1194.13C2066.78,1192.86 2081.51,1192.03 2094.37,1192.14L2114.93,1190.05L2135.23,1183.04L2155.3,1169.65L2173.1,1147.95L2184.18,1116.48L2182.69,1082.26L2165.89,1046.82C2162.9,1042.77 2155.14,1034.09 2148.73,1027.07C2146.96,1001.46 2146.48,978.807 2146.72,962.086C2150.58,950.889 2187.93,842.514 2199.16,817.726C2214.35,784.165 2271.67,710.058 2271.67,710.058L2278.88,700.538L2489.24,167.938L2130.46,550.834C2107.08,567.012 2046.95,609.879 2020.79,640.484C1991.47,674.79 1900.94,808.482 1868.37,870.731C1856.47,893.495 1850.63,911.773 1848.92,921.568L1849.92,959.833C1850.6,962.69 1851.35,965.811 1852.16,969.135ZM1862.43,966.629C1861.72,963.736 1861.06,960.997 1860.45,958.454L1859.51,922.39C1861.34,912.969 1866.93,896.283 1877.74,875.628C1910.02,813.915 1999.76,681.36 2028.83,647.35C2054.48,617.332 2113.54,575.391 2136.47,559.524L2138.17,558.059L2459.05,215.611L2269.58,695.311L2263.28,703.628C2261.89,705.429 2204.83,779.589 2189.53,813.368C2178.24,838.316 2140.61,947.379 2136.73,958.648L2136.16,961.928C2135.91,978.878 2136.39,1001.84 2138.19,1027.8L2140.93,1034.19C2146.69,1040.5 2153.61,1048.19 2156.8,1052.33L2172.23,1084.85L2173.54,1114.89L2163.75,1142.69L2148.12,1161.73L2130.49,1173.5L2112.64,1179.67L2093.89,1181.57C2080.85,1181.49 2066,1182.32 2051.2,1183.6L2041.59,1195.05L2063.23,1441.96L1955.62,1385.45L1940.67,1391.49C1934.12,1411.34 1926.93,1430.78 1919.9,1449.32C1891.79,1523.46 1839.92,1568.22 1667.7,1862.24L1601.53,1975.21L1535.36,1862.24C1363.14,1568.22 1311.09,1523.46 1282.98,1449.32C1275.95,1430.78 1268.76,1411.34 1262.21,1391.49L1247.26,1385.45L1139.65,1441.96L1161.29,1195.05L1151.68,1183.6C1136.89,1182.32 1122.04,1181.49 1109.01,1181.57L1090.25,1179.67L1072.39,1173.5L1054.76,1161.73L1039.13,1142.69L1029.35,1114.89L1030.65,1084.85L1046.08,1052.32C1049.28,1048.19 1056.2,1040.5 1061.96,1034.19L1064.7,1027.8C1066.49,1001.84 1066.98,978.878 1066.72,961.928L1066.15,958.648C1062.27,947.379 1024.65,838.316 1013.35,813.368C998.111,779.705 941.378,705.935 939.617,703.649L933.302,695.311L743.836,215.611L1064.72,558.064L1066.42,559.529C1089.35,575.392 1148.4,617.332 1174.06,647.35C1203.13,681.36 1292.86,813.915 1325.15,875.628C1335.95,896.283 1341.54,912.969 1343.37,922.398L1342.43,958.457C1341.82,961 1341.16,963.737 1340.46,966.629L1348.34,979.429L1456.39,1004.42L1443.55,1058.66L1454.9,1071.6L1551.35,1061.8L1532.05,1162.88C1529.24,1177.64 1524.59,1194.75 1521.38,1213.15C1518.77,1228.08 1516.03,1244.67 1522.66,1260.79C1542.08,1308.03 1519.68,1277.37 1592.36,1403.94L1610.69,1403.93C1683.31,1277.37 1660.8,1308.03 1680.22,1260.79C1686.85,1244.67 1684.11,1228.08 1681.51,1213.15C1678.29,1194.75 1673.65,1177.64 1670.83,1162.88L1651.53,1061.8L1747.98,1071.6L1759.33,1058.66L1746.49,1004.42L1854.54,979.429L1862.43,966.629Z" style="fill:rgb(0,13,193);fill-opacity:0;"/>
        </g>
        <g transform="matrix(-0.545744,0,0,0.545744,1413.98,-106.824)">
            <path d="M1601.53,1823.48C1433.85,1537.21 1382.06,1494.32 1354.69,1422.13C1335.88,1372.51 1313.87,1315.73 1313.87,1263.84L1228.31,1308.78L1245,1118.37C1245,1118.37 1161.79,1104.42 1107.74,1104.89C1093.63,1105.01 1137.82,1072.26 1139.15,1058.21C1143.12,1016.3 1143.89,978.921 1143.29,954.958C1142.66,930.281 1097.97,814.341 1083.21,781.738C1065.75,743.162 1000.77,657.376 1000.77,657.376L962.95,561.614L1015.24,617.418C1015.24,617.418 1088.25,664.987 1115.76,697.177C1149.81,737.012 1272.46,921.277 1268.09,939.599C1262.63,962.496 1252.32,1003.43 1244.76,1027.62C1243.02,1033.18 1268.14,1039.59 1268.14,1039.59L1364.01,1061.77L1340.68,1160.3L1456.72,1148.5C1449.52,1186.26 1430.82,1239.1 1451.73,1289.95C1476.83,1351 1433.85,1286 1601.53,1572.26C1769.21,1286 1726.05,1351 1751.15,1289.95C1772.06,1239.1 1753.37,1186.26 1746.16,1148.5L1862.2,1160.3L1838.88,1061.77L1934.74,1039.59C1934.74,1039.59 1959.86,1033.18 1958.12,1027.62C1950.57,1003.43 1940.25,962.496 1934.79,939.599C1930.42,921.277 2053.07,737.012 2087.12,697.177C2114.63,664.987 2187.64,617.418 2187.64,617.418L2239.93,561.614L2202.11,657.376C2202.11,657.376 2137.13,743.162 2119.67,781.738C2104.91,814.341 2060.22,930.281 2059.6,954.958C2058.99,978.921 2059.77,1016.3 2063.74,1058.21C2065.07,1072.26 2109.25,1105.01 2095.14,1104.89C2041.09,1104.42 1957.88,1118.37 1957.88,1118.37L1974.57,1308.78L1889.01,1263.84C1889.01,1315.73 1867.01,1372.51 1848.19,1422.13C1820.82,1494.32 1769.21,1537.21 1601.53,1823.48Z" style="fill:url(#_Radial2);"/>
            <path d="M1601.53,1823.48C1769.21,1537.21 1820.82,1494.32 1848.19,1422.13C1867.01,1372.51 1889.01,1315.73 1889.01,1263.84L1974.57,1308.78L1957.88,1118.37C1957.88,1118.37 2041.09,1104.42 2095.14,1104.89C2109.25,1105.01 2065.07,1072.26 2063.74,1058.21C2059.77,1016.3 2058.99,978.921 2059.6,954.958C2060.22,930.281 2104.91,814.341 2119.67,781.738C2137.13,743.162 2202.11,657.376 2202.11,657.376L2239.93,561.614L2187.64,617.418C2187.64,617.418 2114.63,664.987 2087.12,697.177C2053.07,737.012 1930.42,921.277 1934.79,939.599C1940.25,962.496 1950.57,1003.43 1958.12,1027.62C1959.86,1033.18 1934.74,1039.59 1934.74,1039.59L1838.88,1061.77L1862.2,1160.3L1746.16,1148.5C1753.37,1186.26 1772.06,1239.1 1751.15,1289.95C1726.05,1351 1769.21,1286 1601.53,1572.26C1433.85,1286 1476.83,1351 1451.73,1289.95C1430.82,1239.1 1449.52,1186.26 1456.72,1148.5L1340.68,1160.3L1364.01,1061.77L1268.14,1039.59C1268.14,1039.59 1243.02,1033.18 1244.76,1027.62C1252.32,1003.43 1262.63,962.496 1268.09,939.599C1272.46,921.277 1149.81,737.012 1115.76,697.177C1088.25,664.987 1015.24,617.418 1015.24,617.418L962.95,561.614L1000.77,657.376C1000.77,657.376 1065.75,743.162 1083.21,781.738C1097.97,814.341 1142.66,930.281 1143.29,954.958C1143.89,978.921 1143.12,1016.3 1139.15,1058.21C1137.82,1072.26 1093.63,1105.01 1107.74,1104.89C1161.79,1104.42 1245,1118.37 1245,1118.37L1228.31,1308.78L1313.87,1263.84C1313.87,1315.73 1335.88,1372.51 1354.69,1422.13C1382.06,1494.32 1433.85,1537.21 1601.53,1823.48ZM2077.58,1094.61C2024.06,1096.59 1956.14,1107.95 1956.14,1107.95L1947.36,1119.29L1962.36,1290.43L1893.93,1254.49L1878.45,1263.84C1878.45,1314.52 1856.69,1369.92 1838.31,1418.39C1811.55,1488.98 1761.36,1531.36 1601.53,1802.62C1441.7,1531.36 1391.34,1488.98 1364.57,1418.39C1346.19,1369.92 1324.44,1314.52 1324.44,1263.84L1308.96,1254.49L1240.52,1290.43L1255.52,1119.29L1246.75,1107.95C1246.75,1107.95 1178.82,1096.59 1125.3,1094.61C1128.87,1090.66 1132.76,1086.33 1135.92,1082.76C1143.65,1074.05 1149.11,1065.11 1149.67,1059.2C1153.68,1016.78 1154.46,978.946 1153.85,954.69C1153.21,929.452 1107.94,810.725 1092.84,777.38C1076.3,740.858 1017.92,662.617 1010.08,652.165L993.139,609.286L1007.53,624.642L1009.47,626.27C1009.47,626.27 1080.86,672.607 1107.73,704.042C1134.72,735.615 1217.86,858.781 1247.83,916.074C1253.02,925.99 1256.88,936.47 1257.54,938.292C1252.06,961.203 1242.05,1000.87 1234.67,1024.46L1234.13,1028.9L1235,1032.84L1236.88,1036.16L1239.87,1039.21C1246.49,1044.57 1265.53,1049.83 1265.76,1049.89L1351.28,1069.67L1330.4,1157.87L1341.75,1170.81L1443.44,1160.47C1435.12,1198.33 1422.64,1246.97 1441.96,1293.97C1467.17,1355.3 1423.96,1290.02 1592.41,1577.6L1610.65,1577.6C1779.1,1290.02 1735.71,1355.3 1760.92,1293.97C1780.25,1246.97 1767.76,1198.33 1759.44,1160.47L1861.14,1170.81L1872.49,1157.87L1851.61,1069.67C1851.61,1069.67 1937.12,1049.89 1937.36,1049.83C1937.36,1049.83 1956.4,1044.57 1963.01,1039.21L1966.01,1036.16L1967.88,1032.84L1968.76,1028.9L1968.21,1024.46C1960.84,1000.87 1950.82,961.203 1945.34,938.292C1946,936.47 1949.87,925.99 1955.05,916.074C1985.02,858.781 2068.17,735.615 2095.15,704.042C2122.02,672.607 2193.41,626.27 2193.41,626.27L2195.36,624.642L2209.74,609.286L2192.81,652.161C2184.96,662.621 2126.58,740.859 2110.04,777.38C2094.95,810.725 2049.67,929.452 2049.03,954.69C2048.42,978.946 2049.2,1016.78 2053.22,1059.2C2053.78,1065.11 2059.23,1074.05 2066.96,1082.76C2070.12,1086.33 2074.02,1090.66 2077.58,1094.61Z" style="fill:rgb(0,13,193);fill-opacity:0;"/>
        </g>
    </g>
    <defs>
        <radialGradient id="_Radial1" cx="0" cy="0" r="1" gradientUnits="userSpaceOnUse" gradientTransform="matrix(1276.98,0,0,1261.86,962.95,1192.55)"><stop offset="0" style="stop-color:rgb(168,61,255);stop-opacity:1"/><stop offset="1" style="stop-color:rgb(68,117,213);stop-opacity:1"/></radialGradient>
        <radialGradient id="_Radial2" cx="0" cy="0" r="1" gradientUnits="userSpaceOnUse" gradientTransform="matrix(1276.98,0,0,1261.86,962.95,1192.55)"><stop offset="0" style="stop-color:rgb(168,61,255);stop-opacity:1"/><stop offset="1" style="stop-color:rgb(68,117,213);stop-opacity:1"/></radialGradient>
    </defs>
</svg>
